<svg width="16" height="16" viewBox="0 0 16 16" fill="none" xmlns="http://www.w3.org/2000/svg">
<path d="M11.4302 3.77932C11.4302 5.83828 9.8792 7.509 7.96637 7.509C6.05233 7.509 4.50137 5.83958 4.50137 3.77932C4.50137 1.71907 6.05233 0.0496368 7.96637 0.0496368C9.8792 0.0496368 11.4302 1.71907 11.4302 3.77932ZM3.46499 8.44078C1.55215 8.44078 0 10.1102 0 12.1692C0 14.2281 1.55095 15.8989 3.46499 15.8989C5.37903 15.8989 6.92999 14.2294 6.92999 12.1692C6.92999 10.1102 5.37903 8.44078 3.46499 8.44078ZM12.4666 8.44078C10.5525 8.44078 9.00154 10.1102 9.00154 12.1704C9.00154 14.2307 10.5525 15.9001 12.4666 15.9001C14.3794 15.9001 15.9316 14.2307 15.9316 12.1704C15.9316 10.1102 14.3806 8.44078 12.4666 8.44078Z" fill="#FF584A"/>
</svg>
