<svg width="16" height="16" viewBox="0 0 16 16" fill="none" xmlns="http://www.w3.org/2000/svg">
<path fill-rule="evenodd" clip-rule="evenodd" d="M14.0995 0H1.90048C0.847512 0 0 0.846154 0 1.89744V14.1026C0 15.1538 0.847512 16 1.90048 16H14.0995C15.1525 16 16 15.1538 16 14.1026V1.89744C16 0.846154 15.1525 0 14.0995 0ZM6.88283 11.5128C6.88283 11.8718 6.60032 12.1538 6.24077 12.1538H3.56982C3.21027 12.1538 2.92777 11.8718 2.92777 11.5128V3.58974C2.92777 3.23077 3.21027 2.94872 3.56982 2.94872H6.24077C6.60032 2.94872 6.88283 3.23077 6.88283 3.58974V11.5128ZM13.0465 7.8718C13.0465 8.23077 12.764 8.51282 12.4302 8.51282H9.73355C9.374 8.51282 9.09149 8.23077 9.09149 7.8718V3.58974C9.09149 3.23077 9.374 2.94872 9.73355 2.94872H12.4045C12.764 2.94872 13.0465 3.23077 13.0465 3.58974V7.8718Z" fill="url(#paint0_linear_1_95)"/>
<defs>
<linearGradient id="paint0_linear_1_95" x1="7.99872" y1="16" x2="7.99872" y2="0.00256497" gradientUnits="userSpaceOnUse">
<stop stop-color="#0050D3"/>
<stop offset="1" stop-color="#0082FF"/>
</linearGradient>
</defs>
</svg>
